<mxfile host="app.diagrams.net" modified="2021-12-24T06:42:46.916Z" agent="5.0 (Windows NT 10.0; Win64; x64) AppleWebKit/537.36 (KHTML, like Gecko) Chrome/96.0.4664.110 Safari/537.36" etag="xVTlMX6go5eSp87m31qs" version="15.9.4" type="github">
  <diagram id="LjoO7NFVbJmHt4rmLPar" name="Page-1">
    <mxGraphModel dx="1483" dy="827" grid="1" gridSize="10" guides="1" tooltips="1" connect="1" arrows="1" fold="1" page="1" pageScale="1" pageWidth="1100" pageHeight="850" math="0" shadow="0">
      <root>
        <mxCell id="0" />
        <mxCell id="1" parent="0" />
        <mxCell id="BLckT2Vn7VJcxvCxK2wA-1" value="Party" style="rounded=1;whiteSpace=wrap;html=1;" vertex="1" parent="1">
          <mxGeometry x="420" y="290" width="100" height="50" as="geometry" />
        </mxCell>
        <mxCell id="BLckT2Vn7VJcxvCxK2wA-2" value="PartyRelationship" style="rounded=1;whiteSpace=wrap;html=1;" vertex="1" parent="1">
          <mxGeometry x="400" y="170" width="140" height="50" as="geometry" />
        </mxCell>
      </root>
    </mxGraphModel>
  </diagram>
</mxfile>
